<svg width="202" height="60" viewBox="0 0 202 60" fill="none" xmlns="http://www.w3.org/2000/svg">
    <path fill-rule="evenodd" clip-rule="evenodd" d="M0 52V8C0 3.58172 3.57464 0 7.98419 0H194.016C198.425 0 202 3.58172 202 8V52C202 56.4183 198.425 60 194.016 60H7.98419C3.57464 60 0 56.4183 0 52ZM1.19763 52V8C1.19763 4.24446 4.23607 1.2 7.98419 1.2H194.016C197.764 1.2 200.802 4.24446 200.802 8V52C200.802 55.7555 197.764 58.8 194.016 58.8H7.98419C4.23608 58.8 1.19763 55.7555 1.19763 52Z" fill="#FF8B8C" />
    <path d="M43.1493 36.1251L37.1731 30.0785L43.1446 24.0023C47.4099 26.3804 50.6848 28.1974 51.3141 28.5307C53.3463 29.6358 52.3136 31.0587 51.3141 31.5965C51.0978 31.7053 49.2943 32.7079 46.6187 34.1955L46.6164 34.1967C46.1857 34.4362 45.7324 34.6884 45.2596 34.9515C44.5924 35.3227 43.8862 35.7156 43.1493 36.1251Z" fill="#FF8B8C" />
    <path d="M42.0612 36.7296L36.3327 30.9336L17.1904 50.4115C17.4211 50.3413 17.6659 50.2348 17.9273 50.0895C18.1232 49.9811 18.5995 49.7179 19.2996 49.331L19.3413 49.308C23.2812 47.1308 34.0987 41.1529 42.0612 36.7296Z" fill="#FF8B8C" />
    <path d="M15.6265 50.2926C15.0648 49.9096 14.7708 49.1088 14.7708 48.0974V12.2177C14.7708 11.0993 15.1605 10.4111 15.7004 10.0583L35.4899 30.0809L15.6265 50.2926Z" fill="#FF8B8C" />
    <path d="M17.1654 9.83521L36.3303 29.2258L42.0369 23.4192C38.4983 21.4666 19.205 10.8216 17.927 10.1339C17.6842 9.98794 17.4256 9.8897 17.1654 9.83521Z" fill="#FF8B8C" />
    <path d="M102.351 32.5957C98.7566 32.5957 95.7866 35.4086 95.7866 39.2654C95.7866 43.0906 98.7255 45.935 102.352 45.935C105.978 45.935 108.916 43.1221 108.916 39.2654C108.916 35.4086 105.978 32.5957 102.351 32.5957ZM102.351 43.281C100.381 43.281 98.6632 41.6051 98.6632 39.2356C98.6632 36.8332 100.383 35.1902 102.351 35.1902C104.32 35.1902 106.04 36.8332 106.04 39.2356C106.04 41.6051 104.32 43.281 102.351 43.281ZM88.0652 32.5957C84.4389 32.5957 81.5 35.4086 81.5 39.2654C81.5 43.0906 84.4389 45.935 88.0652 45.935C91.6911 45.935 94.63 43.1221 94.63 39.2654C94.63 35.4086 91.6911 32.5957 88.0648 32.5957H88.0652ZM88.0652 43.281C86.0949 43.281 84.377 41.6051 84.377 39.2356C84.377 36.8332 86.0967 35.1902 88.0652 35.1902C90.0351 35.1902 91.7534 36.8332 91.7534 39.2356C91.7534 41.6051 90.0645 43.281 88.0652 43.281ZM71.0903 34.6506V37.4635H77.717C77.5288 39.0439 76.9989 40.2134 76.2168 41.0043C75.2481 41.9838 73.7475 43.0592 71.0903 43.0592C66.9944 43.0592 63.8382 39.7088 63.8382 35.5675C63.8382 31.4262 66.9961 28.0125 71.0903 28.0125C73.309 28.0125 74.9044 28.8978 76.0922 30.0362L78.0607 28.044C76.4033 26.4325 74.1846 25.2 71.0903 25.2C65.4938 25.2 60.8044 29.8459 60.8044 35.5045C60.8044 41.1635 65.4938 45.8094 71.0903 45.8094C74.1223 45.8094 76.3739 44.7984 78.1867 42.9006C80.0309 41.0358 80.5936 38.4115 80.5936 36.294C80.5936 35.6305 80.5317 35.0296 80.4369 34.5236L71.0903 34.6506ZM140.552 36.8315C140.02 35.3456 138.333 32.5957 134.956 32.5957C131.579 32.5957 128.797 35.283 128.797 39.2654C128.797 42.9948 131.579 45.935 135.269 45.935C138.27 45.935 139.989 44.0702 140.708 42.9948L138.489 41.4778C137.738 42.5846 136.738 43.3108 135.269 43.3108C133.799 43.3108 132.768 42.6473 132.111 41.2874L140.832 37.5895L140.552 36.8315ZM131.674 39.0767C131.612 36.5155 133.644 35.1885 135.081 35.1885C136.237 35.1885 137.175 35.7575 137.519 36.6114L131.674 39.0767ZM124.577 45.493H127.454V25.9576H124.577V45.493ZM119.889 34.0816H119.796C119.14 33.2907 117.921 32.5957 116.357 32.5957C113.074 32.5957 110.104 35.536 110.104 39.2654C110.104 42.9948 113.105 45.9039 116.357 45.9039C117.919 45.9039 119.138 45.2085 119.796 44.3862H119.889V45.3345C119.889 47.8958 118.544 49.2539 116.388 49.2539C114.637 49.2539 113.542 47.9584 113.105 46.883L110.605 47.9584C111.323 49.7288 113.231 51.9097 116.388 51.9097C119.763 51.9097 122.609 49.8863 122.609 44.987V33.0062H119.889V34.0816ZM116.607 43.281C114.637 43.281 112.981 41.6051 112.981 39.2671C112.981 36.9291 114.638 35.2214 116.607 35.2214C118.546 35.2214 120.108 36.9291 120.108 39.2671C120.107 41.5736 118.544 43.281 116.607 43.281ZM153.963 25.9579H147.086V45.493H149.963V38.0955H153.963C157.152 38.0955 160.278 35.7558 160.278 32.0267C160.278 28.2973 157.152 25.9576 153.963 25.9576V25.9579ZM154.056 35.3789H149.992V28.676H154.056C156.182 28.676 157.432 30.4779 157.432 32.0264C157.403 33.5438 156.184 35.3789 154.056 35.3789ZM171.752 32.5642C169.688 32.5642 167.531 33.4811 166.656 35.5675L169.189 36.6429C169.752 35.5675 170.752 35.22 171.815 35.22C173.316 35.22 174.816 36.1365 174.847 37.748V37.9384C174.315 37.6224 173.222 37.179 171.846 37.179C169.096 37.179 166.312 38.7279 166.312 41.5736C166.312 44.1975 168.564 45.8724 171.064 45.8724C173.003 45.8724 174.065 44.987 174.721 43.9445H174.815V45.4619H177.596V37.9695C177.565 34.5246 175.034 32.5639 171.752 32.5639V32.5642ZM171.408 43.2495C170.47 43.2495 169.156 42.7746 169.156 41.6065C169.156 40.0891 170.781 39.5201 172.188 39.5201C173.438 39.5201 174.033 39.8046 174.815 40.1836C174.596 41.9855 173.064 43.2495 171.408 43.2495ZM187.632 33.008L184.349 41.4476H184.256L180.849 33.0076H177.755L182.881 44.8295L179.973 51.4365H182.974L190.82 33.0076H187.631L187.632 33.008ZM161.873 45.493H164.75V25.9576H161.873V45.493Z" fill="#FF8B8C" />
    <path d="M66.4573 19.8049C65.5886 19.8049 64.788 19.5958 64.0556 19.1777C63.3232 18.7595 62.7398 18.1878 62.3055 17.4625C61.8797 16.7286 61.6667 15.9137 61.6667 15.0177C61.6667 14.1217 61.8797 13.311 62.3055 12.5857C62.7398 11.8518 63.3232 11.2758 64.0556 10.8577C64.788 10.4395 65.5886 10.2305 66.4573 10.2305C67.1471 10.2305 67.7901 10.3542 68.3862 10.6017C68.9824 10.8491 69.4806 11.1947 69.8809 11.6385L68.8845 12.6369C68.5864 12.3041 68.2287 12.0481 67.8114 11.8689C67.4026 11.6897 66.947 11.6001 66.4445 11.6001C65.8569 11.6001 65.3075 11.7409 64.7966 12.0225C64.2856 12.3041 63.8768 12.7051 63.5702 13.2257C63.2636 13.7462 63.1103 14.3435 63.1103 15.0177C63.1103 15.6918 63.2636 16.2891 63.5702 16.8097C63.8768 17.3302 64.2856 17.7313 64.7966 18.0129C65.3075 18.2945 65.8611 18.4353 66.4573 18.4353C67.0023 18.4353 67.4579 18.3542 67.8242 18.1921C68.1904 18.0299 68.5182 17.8123 68.8078 17.5393C68.9952 17.3515 69.1527 17.1169 69.2805 16.8353C69.4167 16.5537 69.5062 16.2465 69.5487 15.9137H66.4445V14.6337H70.9029C70.9454 14.8726 70.9667 15.1201 70.9667 15.3761C70.9667 15.9563 70.8773 16.5153 70.6985 17.0529C70.5196 17.5819 70.2343 18.0427 69.8426 18.4353C68.9824 19.3483 67.854 19.8049 66.4573 19.8049Z" fill="#FF8B8C" />
    <path d="M72.299 10.4353H77.856V11.8049H73.7298V14.3393H77.4472V15.6961H73.7298V18.2305H77.856V19.6001H72.299V10.4353Z" fill="#FF8B8C" />
    <path d="M81.1674 11.8049H78.6125V10.4353H85.1531V11.8049H82.5982V19.6001H81.1674V11.8049Z" fill="#FF8B8C" />
    <path d="M88.8936 10.4353H90.3244V19.6001H88.8936V10.4353Z" fill="#FF8B8C" />
    <path d="M93.9446 11.8049H91.3897V10.4353H97.9303V11.8049H95.3754V19.6001H93.9446V11.8049Z" fill="#FF8B8C" />
    <path d="M105.701 19.8049C104.815 19.8049 104.01 19.5958 103.286 19.1777C102.563 18.751 101.992 18.1707 101.575 17.4369C101.166 16.703 100.961 15.8966 100.961 15.0177C100.961 14.1387 101.166 13.3366 101.575 12.6113C101.992 11.8774 102.563 11.2971 103.286 10.8705C104.01 10.4438 104.815 10.2305 105.701 10.2305C106.587 10.2305 107.387 10.4438 108.102 10.8705C108.826 11.2971 109.397 11.8774 109.814 12.6113C110.232 13.3366 110.44 14.1387 110.44 15.0177C110.44 15.8966 110.232 16.703 109.814 17.4369C109.406 18.1707 108.839 18.751 108.115 19.1777C107.391 19.5958 106.587 19.8049 105.701 19.8049ZM105.701 18.4353C106.306 18.4353 106.859 18.2902 107.362 18.0001C107.864 17.7099 108.26 17.3089 108.55 16.7969C108.839 16.2763 108.984 15.6833 108.984 15.0177C108.984 14.3521 108.839 13.7633 108.55 13.2513C108.26 12.7307 107.864 12.3254 107.362 12.0353C106.859 11.7451 106.306 11.6001 105.701 11.6001C105.096 11.6001 104.543 11.7451 104.04 12.0353C103.538 12.3254 103.137 12.7307 102.839 13.2513C102.55 13.7633 102.405 14.3521 102.405 15.0177C102.405 15.6833 102.55 16.2763 102.839 16.7969C103.137 17.3089 103.538 17.7099 104.04 18.0001C104.543 18.2902 105.096 18.4353 105.701 18.4353Z" fill="#FF8B8C" />
    <path d="M111.756 10.4353H113.455L117.543 17.1041H117.619L117.543 15.3377V10.4353H118.961V19.6001H117.466L113.174 12.5857H113.097L113.174 14.3521V19.6001H111.756V10.4353Z" fill="#FF8B8C" />
</svg>
    