<svg width="202" height="60" viewBox="0 0 202 60" fill="none" xmlns="http://www.w3.org/2000/svg">
    <path fill-rule="evenodd" clip-rule="evenodd" d="M0 52V8C0 3.58172 3.57464 0 7.98419 0H194.016C198.425 0 202 3.58172 202 8V52C202 56.4183 198.425 60 194.016 60H7.98419C3.57464 60 0 56.4183 0 52ZM1.19763 52V8C1.19763 4.24446 4.23607 1.2 7.98419 1.2H194.016C197.764 1.2 200.802 4.24446 200.802 8V52C200.802 55.7555 197.764 58.8 194.016 58.8H7.98419C4.23608 58.8 1.19763 55.7555 1.19763 52Z" fill="#FF8B8C" />
    <path d="M45.6473 31.2218C45.6267 27.7053 47.2168 25.055 50.428 23.1007C48.632 20.5226 45.9149 19.1046 42.3332 18.8314C38.942 18.5632 35.2317 20.8114 33.8731 20.8114C32.4374 20.8114 29.1542 18.9242 26.5709 18.9242C21.2395 19.0067 15.5737 23.1832 15.5737 31.6807C15.5737 34.1918 16.0317 36.7854 16.9477 39.4564C18.1725 42.9729 22.5878 51.589 27.1935 51.4498C29.6019 51.3931 31.3052 49.7379 34.4392 49.7379C37.4805 49.7379 39.0552 51.4498 41.7414 51.4498C46.3883 51.3828 50.3817 43.5504 51.5447 40.0236C45.3128 37.0793 45.6473 31.4023 45.6473 31.2218ZM40.2388 15.4953C42.8478 12.3912 42.6111 9.56559 42.5339 8.5498C40.2285 8.68387 37.5628 10.1225 36.0448 11.8911C34.3723 13.7886 33.3894 16.1346 33.6004 18.7798C36.0911 18.9706 38.3656 17.6867 40.2388 15.4953Z" fill="#FF8B8C" />
    <path d="M73.7556 43.4193H71.1125L69.6647 38.8397H64.6323L63.2532 43.4193H60.6799L65.6658 27.8283H68.7453L73.7556 43.4193ZM69.2283 36.9184L67.919 32.8472C67.7805 32.4313 67.521 31.4519 67.1381 29.9102H67.0915C66.939 30.5733 66.6935 31.5527 66.356 32.8472L65.0699 36.9184H69.2283Z" fill="#FF8B8C" />
    <path d="M86.5776 37.66C86.5776 39.572 86.0643 41.0833 85.0378 42.1927C84.1184 43.1804 82.9767 43.6736 81.6138 43.6736C80.1427 43.6736 79.086 43.1417 78.4424 42.0779H78.3958V48.0001H75.9145V35.8781C75.9145 34.6761 75.8831 33.4425 75.8226 32.1772H78.0048L78.1433 33.9591H78.1898C79.0173 32.6165 80.2731 31.9464 81.9583 31.9464C83.2758 31.9464 84.3756 32.4701 85.2555 33.5186C86.1376 34.5683 86.5776 35.9484 86.5776 37.66ZM84.0497 37.7514C84.0497 36.6572 83.8053 35.7551 83.3142 35.0452C82.7777 34.3047 82.0572 33.9345 81.1541 33.9345C80.5419 33.9345 79.9856 34.1407 79.4887 34.5472C78.9905 34.9573 78.6647 35.4927 78.5122 36.1558C78.4354 36.4651 78.397 36.7181 78.397 36.9173V38.7918C78.397 39.6095 78.646 40.2995 79.1442 40.863C79.6423 41.4266 80.2894 41.7077 81.0854 41.7077C82.02 41.7077 82.7474 41.3445 83.2676 40.6205C83.789 39.8953 84.0497 38.9394 84.0497 37.7514Z" fill="#FF8B8C" />
    <path d="M99.4233 37.66C99.4233 39.572 98.91 41.0833 97.8823 42.1927C96.9641 43.1804 95.8223 43.6736 94.4595 43.6736C92.9884 43.6736 91.9316 43.1417 91.2892 42.0779H91.2427V48.0001H88.7614V35.8781C88.7614 34.6761 88.7299 33.4425 88.6694 32.1772H90.8516L90.9901 33.9591H91.0366C91.863 32.6165 93.1188 31.9464 94.8052 31.9464C96.1215 31.9464 97.2213 32.4701 98.1035 33.5186C98.9822 34.5683 99.4233 35.9484 99.4233 37.66ZM96.8954 37.7514C96.8954 36.6572 96.6498 35.7551 96.1587 35.0452C95.6222 34.3047 94.9041 33.9345 93.9998 33.9345C93.3864 33.9345 92.8313 34.1407 92.3332 34.5472C91.835 34.9573 91.5103 35.4927 91.3579 36.1558C91.2822 36.4651 91.2427 36.7181 91.2427 36.9173V38.7918C91.2427 39.6095 91.4917 40.2995 91.9875 40.863C92.4856 41.4254 93.1327 41.7077 93.9311 41.7077C94.8657 41.7077 95.5931 41.3445 96.1133 40.6205C96.6347 39.8953 96.8954 38.9394 96.8954 37.7514Z" fill="#FF8B8C" />
    <path d="M113.785 39.0473C113.785 40.3735 113.328 41.4524 112.41 42.2854C111.401 43.1957 109.996 43.6503 108.191 43.6503C106.524 43.6503 105.188 43.3269 104.177 42.6791L104.752 40.5972C105.841 41.2603 107.036 41.593 108.338 41.593C109.273 41.593 110 41.3798 110.523 40.9557C111.043 40.5316 111.303 39.9622 111.303 39.2523C111.303 38.6196 111.089 38.0866 110.659 37.6543C110.232 37.222 109.519 36.8202 108.522 36.4488C105.811 35.4307 104.456 33.9393 104.456 31.9782C104.456 30.6965 104.931 29.6456 105.882 28.8279C106.829 28.009 108.093 27.6001 109.673 27.6001C111.083 27.6001 112.254 27.8473 113.188 28.3405L112.568 30.3767C111.695 29.8987 110.708 29.6597 109.604 29.6597C108.731 29.6597 108.049 29.8764 107.56 30.3075C107.147 30.693 106.94 31.1628 106.94 31.7193C106.94 32.3355 107.176 32.8451 107.651 33.2458C108.064 33.616 108.814 34.0167 109.904 34.4489C111.236 34.989 112.215 35.6205 112.845 36.3445C113.472 37.0662 113.785 37.9694 113.785 39.0473Z" fill="#FF8B8C" />
    <path d="M121.989 34.0519H119.254V39.5101C119.254 40.8984 119.735 41.592 120.701 41.592C121.145 41.592 121.513 41.5533 121.804 41.476L121.872 43.3727C121.383 43.5567 120.74 43.6492 119.943 43.6492C118.963 43.6492 118.197 43.3481 117.644 42.7471C117.094 42.1449 116.817 41.1351 116.817 39.7163V34.0496H115.187V32.1751H116.817V30.1167L119.254 29.3763V32.1751H121.989V34.0519Z" fill="#FF8B8C" />
    <path d="M134.329 37.7057C134.329 39.4338 133.838 40.8525 132.858 41.962C131.83 43.1042 130.466 43.6736 128.766 43.6736C127.127 43.6736 125.822 43.1265 124.85 42.0323C123.877 40.938 123.39 39.5568 123.39 37.892C123.39 36.1499 123.891 34.723 124.895 33.6135C125.897 32.5029 127.249 31.9476 128.95 31.9476C130.588 31.9476 131.907 32.4947 132.902 33.5901C133.854 34.6527 134.329 36.0246 134.329 37.7057ZM131.755 37.7866C131.755 36.7498 131.535 35.8606 131.089 35.119C130.569 34.2216 129.825 33.774 128.861 33.774C127.864 33.774 127.106 34.2227 126.586 35.119C126.14 35.8617 125.92 36.765 125.92 37.8334C125.92 38.8703 126.14 39.7595 126.586 40.4999C127.122 41.3973 127.872 41.8448 128.839 41.8448C129.787 41.8448 130.53 41.3879 131.067 40.4764C131.524 39.7208 131.755 38.8222 131.755 37.7866Z" fill="#FF8B8C" />
    <path d="M142.394 34.3739C142.149 34.3282 141.887 34.3047 141.612 34.3047C140.739 34.3047 140.064 34.6363 139.589 35.3005C139.176 35.8863 138.969 36.6267 138.969 37.5206V43.4194H136.489L136.512 35.7176C136.512 34.4219 136.481 33.2421 136.419 32.1784H138.58L138.671 34.3293H138.74C139.002 33.5901 139.415 32.9949 139.98 32.5486C140.533 32.1468 141.13 31.9464 141.774 31.9464C142.003 31.9464 142.21 31.9628 142.394 31.9921V34.3739Z" fill="#FF8B8C" />
    <path d="M153.491 37.2665C153.491 37.714 153.462 38.0912 153.4 38.3994H145.956C145.985 39.51 146.345 40.3594 147.036 40.9451C147.663 41.4688 148.475 41.7312 149.471 41.7312C150.573 41.7312 151.579 41.5543 152.483 41.1994L152.872 42.9332C151.815 43.3972 150.567 43.628 149.128 43.628C147.396 43.628 146.036 43.1148 145.047 42.0897C144.06 41.0646 143.566 39.6881 143.566 37.9612C143.566 36.266 144.025 34.8543 144.946 33.7284C145.91 32.5264 147.212 31.9254 148.851 31.9254C150.46 31.9254 151.679 32.5264 152.506 33.7284C153.161 34.6832 153.491 35.8641 153.491 37.2665ZM151.125 36.6186C151.141 35.8782 150.979 35.2385 150.643 34.6985C150.213 34.0037 149.553 33.6569 148.665 33.6569C147.854 33.6569 147.194 33.9955 146.69 34.675C146.277 35.2151 146.032 35.863 145.956 36.6174H151.125V36.6186Z" fill="#FF8B8C" />
    <path d="M68.7231 17.3439C68.7231 19.0291 68.221 20.2977 67.2182 21.1497C66.2894 21.9357 64.9694 22.3295 63.2597 22.3295C62.4119 22.3295 61.6865 22.2923 61.0791 22.2178V13.0097C61.8714 12.8809 62.7248 12.815 63.6465 12.815C65.2752 12.815 66.5027 13.1715 67.3306 13.8846C68.258 14.6907 68.7231 15.8433 68.7231 17.3439ZM67.1514 17.3854C67.1514 16.2929 66.864 15.4553 66.2894 14.8711C65.7147 14.2884 64.8755 13.9963 63.7703 13.9963C63.3009 13.9963 62.9012 14.0278 62.5698 14.0936V21.0938C62.7533 21.1225 63.089 21.1354 63.5768 21.1354C64.7176 21.1354 65.5981 20.8161 66.2183 20.1775C66.8384 19.5389 67.1514 18.6082 67.1514 17.3854Z" fill="#FF8B8C" />
    <path d="M77.0571 18.816C77.0571 19.8541 76.7626 20.7046 76.1738 21.3718C75.5564 22.0577 74.7386 22.3999 73.7173 22.3999C72.733 22.3999 71.9492 22.072 71.3646 21.4134C70.7814 20.7562 70.4898 19.9271 70.4898 18.9277C70.4898 17.8825 70.79 17.0248 71.3931 16.359C71.9962 15.6932 72.8069 15.3596 73.8282 15.3596C74.8125 15.3596 75.6034 15.6875 76.2022 16.3447C76.7712 16.9833 77.0571 17.808 77.0571 18.816ZM75.5109 18.8647C75.5109 18.2419 75.3772 17.7078 75.1112 17.2625C74.7983 16.7241 74.3531 16.455 73.7742 16.455C73.1753 16.455 72.7202 16.7241 72.4072 17.2625C72.1398 17.7078 72.0075 18.2505 72.0075 18.8919C72.0075 19.5148 72.1413 20.0488 72.4072 20.4941C72.7301 21.0325 73.1796 21.3017 73.7599 21.3017C74.3289 21.3017 74.7755 21.0282 75.097 20.4798C75.373 20.0259 75.5109 19.4876 75.5109 18.8647Z" fill="#FF8B8C" />
    <path d="M88.2319 15.497L86.1338 22.2466H84.7683L83.8993 19.3157C83.6788 18.584 83.4996 17.8566 83.3602 17.135H83.3331C83.2037 17.8767 83.0245 18.6026 82.794 19.3157L81.8709 22.2466H80.4897L78.5169 15.497H80.0488L80.8069 18.7057C80.9904 19.4646 81.1412 20.1876 81.2621 20.8721H81.2891C81.4001 20.3079 81.5836 19.5891 81.8425 18.72L82.794 15.4984H84.0088L84.9205 18.6513C85.141 19.4202 85.3202 20.1604 85.4582 20.8735H85.4995C85.6004 20.1791 85.7526 19.4388 85.9546 18.6513L86.7682 15.4984H88.2319V15.497Z" fill="#FF8B8C" />
    <path d="M95.9593 22.2467H94.4686V18.3807C94.4686 17.1894 94.0191 16.5938 93.1173 16.5938C92.675 16.5938 92.3179 16.757 92.0406 17.0849C91.7661 17.4128 91.6267 17.7994 91.6267 18.2418V22.2452H90.136V17.4257C90.136 16.8329 90.1175 16.19 90.0819 15.4942H91.392L91.4617 16.5494H91.5029C91.6764 16.2215 91.9353 15.9509 92.2753 15.7347C92.6792 15.4827 93.1316 15.3553 93.6266 15.3553C94.2524 15.3553 94.773 15.5586 95.1869 15.9667C95.7018 16.4664 95.9593 17.2124 95.9593 18.2032V22.2467Z" fill="#FF8B8C" />
    <path d="M100.07 22.2466H98.5806V12.3999H100.07V22.2466Z" fill="#FF8B8C" />
    <path d="M108.846 18.816C108.846 19.8541 108.552 20.7046 107.963 21.3718C107.345 22.0577 106.526 22.3999 105.506 22.3999C104.521 22.3999 103.737 22.072 103.154 21.4134C102.57 20.7562 102.279 19.9271 102.279 18.9277C102.279 17.8825 102.579 17.0248 103.182 16.359C103.785 15.6932 104.596 15.3596 105.616 15.3596C106.601 15.3596 107.391 15.6875 107.991 16.3447C108.56 16.9833 108.846 17.808 108.846 18.816ZM107.298 18.8647C107.298 18.2419 107.165 17.7078 106.899 17.2625C106.587 16.7241 106.141 16.455 105.563 16.455C104.963 16.455 104.508 16.7241 104.196 17.2625C103.929 17.7078 103.797 18.2505 103.797 18.8919C103.797 19.5148 103.93 20.0488 104.196 20.4941C104.519 21.0325 104.969 21.3017 105.549 21.3017C106.118 21.3017 106.563 21.0282 106.885 20.4798C107.162 20.0259 107.298 19.4876 107.298 18.8647Z" fill="#FF8B8C" />
    <path d="M116.061 22.2467H114.722L114.611 21.4692H114.57C114.112 22.0892 113.459 22.3999 112.611 22.3999C111.978 22.3999 111.466 22.1951 111.081 21.7885C110.731 21.4191 110.556 20.9595 110.556 20.414C110.556 19.5892 110.897 18.9607 111.584 18.5254C112.27 18.0901 113.234 17.8768 114.476 17.8868V17.7608C114.476 16.8716 114.012 16.4278 113.083 16.4278C112.422 16.4278 111.839 16.5953 111.335 16.9275L111.032 15.9424C111.655 15.5543 112.425 15.3596 113.332 15.3596C115.085 15.3596 115.964 16.2903 115.964 18.1517V20.6373C115.964 21.3117 115.997 21.8486 116.061 22.2467ZM114.513 19.9271V18.8862C112.869 18.8576 112.047 19.3115 112.047 20.2464C112.047 20.5987 112.14 20.8621 112.332 21.0382C112.524 21.2143 112.769 21.3017 113.061 21.3017C113.388 21.3017 113.694 21.1972 113.972 20.9896C114.253 20.7805 114.425 20.5156 114.489 20.1906C114.504 20.1176 114.513 20.0288 114.513 19.9271Z" fill="#FF8B8C" />
    <path d="M124.531 22.2466H123.208L123.138 21.1627H123.097C122.675 21.9874 121.955 22.3998 120.944 22.3998C120.136 22.3998 119.463 22.0805 118.929 21.4419C118.396 20.8033 118.13 19.9743 118.13 18.9562C118.13 17.8638 118.419 16.9789 118.999 16.3031C119.561 15.6731 120.249 15.3581 121.069 15.3581C121.969 15.3581 122.599 15.663 122.958 16.2744H122.986V12.3999H124.478V20.4282C124.478 21.0854 124.495 21.691 124.531 22.2466ZM122.986 19.4001V18.2747C122.986 18.08 122.972 17.9225 122.945 17.8022C122.861 17.4414 122.68 17.1378 122.406 16.893C122.128 16.6481 121.794 16.525 121.409 16.525C120.852 16.525 120.417 16.7469 120.097 17.1922C119.78 17.6375 119.619 18.206 119.619 18.9004C119.619 19.5676 119.771 20.1089 120.077 20.5255C120.4 20.9694 120.835 21.1913 121.38 21.1913C121.869 21.1913 122.261 21.0066 122.558 20.6358C122.845 20.2936 122.986 19.8812 122.986 19.4001Z" fill="#FF8B8C" />
    <path d="M137.28 18.816C137.28 19.8541 136.986 20.7046 136.397 21.3718C135.78 22.0577 134.963 22.3999 133.941 22.3999C132.958 22.3999 132.174 22.072 131.588 21.4134C131.005 20.7562 130.713 19.9271 130.713 18.9277C130.713 17.8825 131.013 17.0248 131.616 16.359C132.22 15.6932 133.03 15.3596 134.053 15.3596C135.036 15.3596 135.828 15.6875 136.426 16.3447C136.995 16.9833 137.28 17.808 137.28 18.816ZM135.736 18.8647C135.736 18.2419 135.602 17.7078 135.336 17.2625C135.022 16.7241 134.578 16.455 133.998 16.455C133.4 16.455 132.945 16.7241 132.631 17.2625C132.363 17.7078 132.231 18.2505 132.231 18.8919C132.231 19.5148 132.365 20.0488 132.631 20.4941C132.954 21.0325 133.403 21.3017 133.983 21.3017C134.552 21.3017 135 21.0282 135.322 20.4798C135.596 20.0259 135.736 19.4876 135.736 18.8647Z" fill="#FF8B8C" />
    <path d="M145.295 22.2467H143.806V18.3807C143.806 17.1894 143.357 16.5938 142.453 16.5938C142.011 16.5938 141.654 16.757 141.378 17.0849C141.102 17.4128 140.964 17.7994 140.964 18.2418V22.2452H139.472V17.4257C139.472 16.8329 139.455 16.19 139.419 15.4942H140.728L140.798 16.5494H140.839C141.014 16.2215 141.273 15.9509 141.611 15.7347C142.017 15.4827 142.468 15.3553 142.964 15.3553C143.588 15.3553 144.109 15.5586 144.523 15.9667C145.039 16.4664 145.295 17.2124 145.295 18.2032V22.2467Z" fill="#FF8B8C" />
    <path d="M155.327 16.621H153.686V19.8999C153.686 20.7332 153.977 21.1499 154.555 21.1499C154.822 21.1499 155.044 21.127 155.219 21.0797L155.257 22.218C154.963 22.3297 154.576 22.3856 154.1 22.3856C153.511 22.3856 153.053 22.2052 152.721 21.8443C152.388 21.4835 152.223 20.8764 152.223 20.0245V16.621H151.243V15.497H152.223V14.2599L153.684 13.8161V15.4956H155.326V16.621H155.327Z" fill="#FF8B8C" />
    <path d="M163.219 22.2466H161.727V18.4093C161.727 17.1994 161.278 16.5937 160.377 16.5937C159.686 16.5937 159.214 16.9445 158.955 17.6461C158.911 17.7936 158.885 17.974 158.885 18.1859V22.2451H157.396V12.3999H158.885V16.4677H158.913C159.383 15.7275 160.056 15.3581 160.928 15.3581C161.545 15.3581 162.056 15.5614 162.461 15.9694C162.966 16.4777 163.219 17.2337 163.219 18.2332V22.2466Z" fill="#FF8B8C" />
    <path d="M171.36 18.5525C171.36 18.8217 171.34 19.0479 171.305 19.2326H166.834C166.854 19.8998 167.067 20.4081 167.481 20.7603C167.86 21.0753 168.348 21.2328 168.945 21.2328C169.606 21.2328 170.209 21.1269 170.753 20.9136L170.986 21.9559C170.35 22.2337 169.602 22.3726 168.736 22.3726C167.698 22.3726 166.88 22.0647 166.288 21.4491C165.693 20.8334 165.399 20.0072 165.399 18.9706C165.399 17.9525 165.673 17.1049 166.227 16.4291C166.804 15.7074 167.585 15.3466 168.571 15.3466C169.535 15.3466 170.268 15.7074 170.763 16.4291C171.162 17.0018 171.36 17.7106 171.36 18.5525ZM169.938 18.1644C169.949 17.7191 169.851 17.3354 169.649 17.0118C169.39 16.5952 168.996 16.3861 168.463 16.3861C167.976 16.3861 167.579 16.5894 167.276 16.9975C167.029 17.3225 166.882 17.7106 166.834 18.1644H169.938Z" fill="#FF8B8C" />
</svg>
    