<svg width="24" height="24" viewBox="0 0 24 24" fill="none" xmlns="http://www.w3.org/2000/svg">
    <path d="M12.0001 23.9999C11.7349 23.9999 11.4806 23.8945 11.2931 23.7069L3.12214 15.5349C2.18478 14.5973 1.6582 13.3257 1.6582 11.9999C1.6582 10.6741 2.18478 9.40256 3.12214 8.46492L11.2931 0.292919C11.4817 0.110761 11.7343 0.00996641 11.9965 0.0122448C12.2587 0.0145233 12.5095 0.119692 12.695 0.3051C12.8804 0.490508 12.9855 0.741321 12.9878 1.00352C12.9901 1.26571 12.8893 1.51832 12.7071 1.70692L4.53614 9.87892C3.97372 10.4415 3.65778 11.2044 3.65778 11.9999C3.65778 12.7954 3.97372 13.5583 4.53614 14.1209L12.7071 22.2929C12.8469 22.4328 12.9422 22.6109 12.9807 22.8049C13.0193 22.9988 12.9995 23.1999 12.9238 23.3826C12.8481 23.5653 12.72 23.7214 12.5556 23.8313C12.3912 23.9412 12.1979 23.9999 12.0001 23.9999Z" fill="#101928" />
    <path d="M22.0005 23.9999C21.7353 23.9999 21.481 23.8945 21.2935 23.7069L11.7075 14.1209C11.145 13.5583 10.8291 12.7954 10.8291 11.9999C10.8291 11.2044 11.145 10.4415 11.7075 9.87892L21.2935 0.292919C21.4821 0.110761 21.7347 0.00996641 21.9969 0.0122448C22.2591 0.0145233 22.5099 0.119692 22.6953 0.3051C22.8807 0.490508 22.9859 0.741321 22.9881 1.00352C22.9904 1.26571 22.8896 1.51832 22.7075 1.70692L13.1215 11.2929C12.934 11.4804 12.8287 11.7348 12.8287 11.9999C12.8287 12.2651 12.934 12.5194 13.1215 12.7069L22.7075 22.2929C22.8473 22.4328 22.9425 22.6109 22.981 22.8049C23.0196 22.9988 22.9998 23.1999 22.9241 23.3826C22.8485 23.5653 22.7203 23.7214 22.5559 23.8313C22.3915 23.9412 22.1982 23.9999 22.0005 23.9999Z" fill="#101928" />
</svg>
    