<svg width="24" height="24" viewBox="0 0 24 24" fill="none" xmlns="http://www.w3.org/2000/svg">
    <g clip-path="url(#clip0)">
        <path d="M23.7066 15.293C23.5191 15.1056 23.2648 15.0002 22.9996 15.0002C22.7344 15.0002 22.4801 15.1056 22.2926 15.293L19.4996 18.086L16.7066 15.293C16.518 15.1109 16.2654 15.0101 16.0032 15.0124C15.741 15.0146 15.4902 15.1198 15.3048 15.3052C15.1194 15.4906 15.0142 15.7414 15.0119 16.0036C15.0096 16.2658 15.1104 16.5184 15.2926 16.707L18.0856 19.5L15.2926 22.293C15.1971 22.3853 15.1209 22.4956 15.0685 22.6176C15.0161 22.7396 14.9885 22.8709 14.9873 23.0036C14.9862 23.1364 15.0115 23.2681 15.0618 23.391C15.1121 23.5139 15.1863 23.6255 15.2802 23.7194C15.3741 23.8133 15.4857 23.8876 15.6086 23.9379C15.7315 23.9881 15.8632 24.0134 15.996 24.0123C16.1288 24.0111 16.26 23.9835 16.382 23.9311C16.504 23.8787 16.6143 23.8025 16.7066 23.707L19.4996 20.914L22.2926 23.707C22.4812 23.8892 22.7338 23.99 22.996 23.9877C23.2582 23.9854 23.509 23.8803 23.6944 23.6948C23.8798 23.5094 23.985 23.2586 23.9873 22.9964C23.9895 22.7342 23.8888 22.4816 23.7066 22.293L20.9136 19.5L23.7066 16.707C23.8941 16.5195 23.9994 16.2652 23.9994 16C23.9994 15.7349 23.8941 15.4806 23.7066 15.293Z" fill="#2C2C2C" />
        <path d="M12 22C10.0222 22 8.08879 21.4135 6.4443 20.3147C4.79981 19.2159 3.51809 17.6541 2.76121 15.8268C2.00433 13.9996 1.8063 11.9889 2.19215 10.0491C2.578 8.10929 3.53041 6.32746 4.92894 4.92894C6.32746 3.53041 8.10929 2.578 10.0491 2.19215C11.9889 1.8063 13.9996 2.00433 15.8268 2.76121C17.6541 3.51809 19.2159 4.79981 20.3147 6.4443C21.4135 8.08879 22 10.0222 22 12C22 12.2652 22.1054 12.5196 22.2929 12.7071C22.4804 12.8946 22.7348 13 23 13C23.2652 13 23.5196 12.8946 23.7071 12.7071C23.8946 12.5196 24 12.2652 24 12C24 9.62663 23.2962 7.30655 21.9776 5.33316C20.6591 3.35977 18.7849 1.8217 16.5922 0.913451C14.3995 0.00519943 11.9867 -0.232441 9.65892 0.230582C7.33115 0.693605 5.19295 1.83649 3.51472 3.51472C1.83649 5.19295 0.693605 7.33115 0.230582 9.65892C-0.232441 11.9867 0.00519943 14.3995 0.913451 16.5922C1.8217 18.7849 3.35977 20.6591 5.33316 21.9776C7.30655 23.2962 9.62663 24 12 24C12.2652 24 12.5196 23.8946 12.7071 23.7071C12.8946 23.5196 13 23.2652 13 23C13 22.7348 12.8946 22.4804 12.7071 22.2929C12.5196 22.1054 12.2652 22 12 22Z" fill="#2C2C2C" />
        <path d="M11.9996 6C11.7344 6 11.48 6.10536 11.2925 6.29289C11.1049 6.48043 10.9996 6.73478 10.9996 7V11.586L8.29259 14.293C8.19708 14.3852 8.1209 14.4956 8.06849 14.6176C8.01608 14.7396 7.9885 14.8708 7.98734 15.0036C7.98619 15.1364 8.01149 15.2681 8.06177 15.391C8.11205 15.5139 8.18631 15.6255 8.2802 15.7194C8.37409 15.8133 8.48574 15.8875 8.60864 15.9378C8.73154 15.9881 8.86321 16.0134 8.99599 16.0123C9.12877 16.0111 9.25999 15.9835 9.382 15.9311C9.504 15.8787 9.61435 15.8025 9.70659 15.707L12.7066 12.707C12.8941 12.5195 12.9995 12.2652 12.9996 12V7C12.9996 6.73478 12.8942 6.48043 12.7067 6.29289C12.5192 6.10536 12.2648 6 11.9996 6Z" fill="#2C2C2C" />
    </g>
    <defs>
        <clipPath id="clip0">
            <rect width="24" height="24" fill="white" />
        </clipPath>
    </defs>
</svg>
    