<svg width="304" height="24" viewBox="0 0 304 24" fill="none" xmlns="http://www.w3.org/2000/svg">
<g clip-path="url(#clip0)">
<path d="M9 24H1C0.734784 24 0.48043 23.8946 0.292893 23.7071C0.105357 23.5196 0 23.2652 0 23C0 22.7348 0.105357 22.4804 0.292893 22.2929C0.48043 22.1054 0.734784 22 1 22H9C9.26522 22 9.51957 22.1054 9.70711 22.2929C9.89464 22.4804 10 22.7348 10 23C10 23.2652 9.89464 23.5196 9.70711 23.7071C9.51957 23.8946 9.26522 24 9 24Z" fill="#374957"/>
<path d="M7 20H1C0.734784 20 0.48043 19.8946 0.292893 19.7071C0.105357 19.5196 0 19.2652 0 19C0 18.7348 0.105357 18.4804 0.292893 18.2929C0.48043 18.1054 0.734784 18 1 18H7C7.26522 18 7.51957 18.1054 7.70711 18.2929C7.89464 18.4804 8 18.7348 8 19C8 19.2652 7.89464 19.5196 7.70711 19.7071C7.51957 19.8946 7.26522 20 7 20Z" fill="#374957"/>
<path d="M5 16H1C0.734784 16 0.48043 15.8946 0.292893 15.7071C0.105357 15.5196 0 15.2652 0 15C0 14.7348 0.105357 14.4804 0.292893 14.2929C0.48043 14.1054 0.734784 14 1 14H5C5.26522 14 5.51957 14.1054 5.70711 14.2929C5.89464 14.4804 6 14.7348 6 15C6 15.2652 5.89464 15.5196 5.70711 15.7071C5.51957 15.8946 5.26522 16 5 16Z" fill="#374957"/>
<path d="M13 23.9551C12.7348 23.9669 12.4757 23.8729 12.2798 23.6937C12.084 23.5145 11.9673 23.2648 11.9555 22.9996C11.9437 22.7344 12.0377 22.4754 12.2169 22.2795C12.3961 22.0836 12.6458 21.9669 12.911 21.9551C14.8034 21.782 16.6074 21.0731 18.1115 19.9117C19.6156 18.7502 20.7577 17.1843 21.4039 15.3971C22.0501 13.61 22.1737 11.6758 21.7602 9.82092C21.3467 7.96609 20.4133 6.26747 19.0692 4.92402C17.7252 3.58057 16.0261 2.64791 14.1711 2.23528C12.3161 1.82266 10.3819 1.94715 8.59505 2.59417C6.80823 3.2412 5.24276 4.38397 4.082 5.88864C2.92125 7.39331 2.21327 9.19758 2.04098 11.0901C2.02916 11.2209 1.9917 11.3481 1.93072 11.4644C1.86975 11.5807 1.78646 11.6839 1.68562 11.768C1.58477 11.8522 1.46835 11.9156 1.34298 11.9547C1.21762 11.9939 1.08578 12.0079 0.95498 11.9961C0.824183 11.9843 0.696995 11.9468 0.580678 11.8859C0.464361 11.8249 0.361192 11.7416 0.277062 11.6408C0.192932 11.5399 0.129489 11.4235 0.0903544 11.2981C0.05122 11.1728 0.037161 11.0409 0.0489799 10.9101C0.327869 7.83342 1.78258 4.98281 4.11031 2.95168C6.43803 0.920545 9.45942 -0.134621 12.5455 0.00582676C15.6316 0.146274 18.5447 1.47151 20.6783 3.70568C22.8119 5.93985 24.0017 8.91081 24 12.0001C24.0153 14.9985 22.9014 17.8927 20.8799 20.1071C18.8583 22.3216 16.0773 23.6939 13.09 23.9511C13.06 23.9541 13.029 23.9551 13 23.9551Z" fill="#374957"/>
<path d="M12 6C11.7348 6 11.4804 6.10536 11.2929 6.29289C11.1054 6.48043 11 6.73478 11 7V12C11.0001 12.2652 11.1055 12.5195 11.293 12.707L14.293 15.707C14.4816 15.8892 14.7342 15.99 14.9964 15.9877C15.2586 15.9854 15.5094 15.8802 15.6948 15.6948C15.8802 15.5094 15.9854 15.2586 15.9877 14.9964C15.99 14.7342 15.8892 14.4816 15.707 14.293L13 11.586V7C13 6.73478 12.8946 6.48043 12.7071 6.29289C12.5196 6.10536 12.2652 6 12 6Z" fill="#374957"/>
</g>
<path d="M72 6C72.2652 6 72.5196 6.10536 72.7071 6.29289C72.8946 6.48043 73 6.73478 73 7C73 7.26522 72.8946 7.51957 72.7071 7.70711C72.5196 7.89464 72.2652 8 72 8H64C63.7348 8 63.4804 7.89464 63.2929 7.70711C63.1054 7.51957 63 7.26522 63 7C63 6.73478 63.1054 6.48043 63.2929 6.29289C63.4804 6.10536 63.7348 6 64 6H72ZM79.707 23.707C79.5195 23.8945 79.2652 23.9998 79 23.9998C78.7348 23.9998 78.4805 23.8945 78.293 23.707L75.886 21.3C75.1732 21.755 74.3456 21.9977 73.5 22C72.61 22 71.74 21.7361 70.9999 21.2416C70.2599 20.7471 69.6831 20.0443 69.3425 19.2221C69.0019 18.3998 68.9128 17.495 69.0865 16.6221C69.2601 15.7492 69.6887 14.9474 70.318 14.318C70.9474 13.6887 71.7492 13.2601 72.6221 13.0865C73.495 12.9128 74.3998 13.0019 75.2221 13.3425C76.0443 13.6831 76.7471 14.2599 77.2416 14.9999C77.7361 15.74 78 16.61 78 17.5C77.9977 18.3456 77.755 19.1732 77.3 19.886L79.707 22.293C79.8945 22.4805 79.9998 22.7348 79.9998 23C79.9998 23.2652 79.8945 23.5195 79.707 23.707ZM73.5 20C73.9945 20 74.4778 19.8534 74.8889 19.5787C75.3 19.304 75.6205 18.9135 75.8097 18.4567C75.9989 17.9999 76.0484 17.4972 75.952 17.0123C75.8555 16.5273 75.6174 16.0819 75.2678 15.7322C74.9181 15.3826 74.4727 15.1445 73.9877 15.048C73.5028 14.9516 73.0001 15.0011 72.5433 15.1903C72.0865 15.3795 71.696 15.7 71.4213 16.1111C71.1466 16.5222 71 17.0055 71 17.5C71 18.163 71.2634 18.7989 71.7322 19.2678C72.2011 19.7366 72.837 20 73.5 20ZM69 22H63C62.2044 22 61.4413 21.6839 60.8787 21.1213C60.3161 20.5587 60 19.7956 60 19V5C60 4.20435 60.3161 3.44129 60.8787 2.87868C61.4413 2.31607 62.2044 2 63 2H75C75.2652 2 75.5196 2.10536 75.7071 2.29289C75.8946 2.48043 76 2.73478 76 3V11C76 11.2652 76.1054 11.5196 76.2929 11.7071C76.4804 11.8946 76.7348 12 77 12C77.2652 12 77.5196 11.8946 77.7071 11.7071C77.8946 11.5196 78 11.2652 78 11V3C78 2.20435 77.6839 1.44129 77.1213 0.87868C76.5587 0.31607 75.7956 0 75 0L63 0C61.6744 0.00158786 60.4036 0.528882 59.4662 1.46622C58.5289 2.40356 58.0016 3.67441 58 5V19C58.0016 20.3256 58.5289 21.5964 59.4662 22.5338C60.4036 23.4711 61.6744 23.9984 63 24H69C69.2652 24 69.5196 23.8946 69.7071 23.7071C69.8946 23.5196 70 23.2652 70 23C70 22.7348 69.8946 22.4804 69.7071 22.2929C69.5196 22.1054 69.2652 22 69 22Z" fill="#2C2C2C"/>
<g clip-path="url(#clip1)">
<path d="M131.95 5.53602L128.464 2.05002C127.816 1.3981 127.044 0.881248 126.195 0.529368C125.345 0.177488 124.434 -0.00243056 123.515 2.47962e-05H119C117.674 0.00161265 116.404 0.528907 115.466 1.46624C114.529 2.40358 114.002 3.67443 114 5.00002V19C114.002 20.3256 114.529 21.5965 115.466 22.5338C116.404 23.4711 117.674 23.9984 119 24H129C130.326 23.9984 131.596 23.4711 132.534 22.5338C133.471 21.5965 133.998 20.3256 134 19V10.485C134.002 9.56554 133.823 8.6547 133.471 7.80521C133.119 6.95572 132.602 6.18445 131.95 5.53602ZM130.536 6.95002C130.841 7.26443 131.104 7.61743 131.317 8.00002H127C126.735 8.00002 126.48 7.89467 126.293 7.70713C126.105 7.5196 126 7.26524 126 7.00002V2.68302C126.383 2.89641 126.736 3.15897 127.05 3.46402L130.536 6.95002ZM132 19C132 19.7957 131.684 20.5587 131.121 21.1213C130.559 21.684 129.796 22 129 22H119C118.204 22 117.441 21.684 116.879 21.1213C116.316 20.5587 116 19.7957 116 19V5.00002C116 4.20438 116.316 3.44131 116.879 2.8787C117.441 2.3161 118.204 2.00002 119 2.00002H123.515C123.68 2.00002 123.838 2.03202 124 2.04702V7.00002C124 7.79567 124.316 8.55874 124.879 9.12135C125.441 9.68395 126.204 10 127 10H131.953C131.968 10.162 132 10.32 132 10.485V19ZM128.724 13.311C128.907 13.5031 129.005 13.7598 128.999 14.0248C128.992 14.2897 128.881 14.5412 128.689 14.724L125.1 18.138C124.536 18.6933 123.775 19.0031 122.983 18.9999C122.192 18.9967 121.434 18.6808 120.874 18.121L119.334 16.747C119.136 16.5704 119.016 16.3223 119.001 16.0573C118.993 15.9261 119.012 15.7947 119.055 15.6706C119.098 15.5465 119.166 15.4321 119.253 15.334C119.34 15.2359 119.446 15.156 119.565 15.0989C119.683 15.0417 119.812 15.0084 119.943 15.0009C120.208 14.9857 120.468 15.0764 120.666 15.253L122.251 16.667C122.342 16.7689 122.452 16.8512 122.576 16.9087C122.7 16.9663 122.834 16.9979 122.97 17.0016C123.107 17.0054 123.242 16.9812 123.369 16.9305C123.496 16.8798 123.611 16.8038 123.707 16.707L127.307 13.276C127.402 13.185 127.514 13.1137 127.637 13.0662C127.76 13.0186 127.891 12.9959 128.023 12.9991C128.154 13.0024 128.284 13.0316 128.405 13.0851C128.525 13.1386 128.633 13.2154 128.724 13.311Z" fill="#2C2C2C"/>
</g>
<g clip-path="url(#clip2)">
<path d="M183.207 14.207L181.414 16L183.207 17.793C183.303 17.8853 183.379 17.9956 183.431 18.1176C183.484 18.2396 183.511 18.3708 183.512 18.5036C183.513 18.6364 183.488 18.7681 183.438 18.891C183.388 19.0139 183.313 19.1255 183.219 19.2194C183.126 19.3133 183.014 19.3876 182.891 19.4378C182.768 19.4881 182.636 19.5134 182.504 19.5123C182.371 19.5111 182.24 19.4835 182.118 19.4311C181.996 19.3787 181.885 19.3025 181.793 19.207L180 17.414L178.207 19.207C178.018 19.3892 177.766 19.49 177.504 19.4877C177.241 19.4854 176.991 19.3802 176.805 19.1948C176.62 19.0094 176.515 18.7586 176.512 18.4964C176.51 18.2342 176.611 17.9816 176.793 17.793L178.586 16L176.793 14.207C176.611 14.0184 176.51 13.7658 176.512 13.5036C176.515 13.2414 176.62 12.9906 176.805 12.8052C176.991 12.6198 177.241 12.5146 177.504 12.5123C177.766 12.5101 178.018 12.6109 178.207 12.793L180 14.586L181.793 12.793C181.982 12.6109 182.234 12.5101 182.496 12.5123C182.759 12.5146 183.009 12.6198 183.195 12.8052C183.38 12.9906 183.485 13.2414 183.488 13.5036C183.49 13.7658 183.389 14.0184 183.207 14.207ZM190 10.485V19C189.998 20.3256 189.471 21.5965 188.534 22.5338C187.596 23.4711 186.326 23.9984 185 24H175C173.674 23.9984 172.404 23.4711 171.466 22.5338C170.529 21.5965 170.002 20.3256 170 19V5.00002C170.002 3.67443 170.529 2.40358 171.466 1.46624C172.404 0.528905 173.674 0.00161091 175 2.30487e-05H179.515C180.435 -0.00234388 181.346 0.177611 182.195 0.529482C183.045 0.881354 183.816 1.39816 184.465 2.05002L187.949 5.53602C188.601 6.18426 189.118 6.95548 189.47 7.805C189.822 8.65451 190.002 9.56545 190 10.485ZM183.051 3.46402C182.736 3.15918 182.383 2.89695 182 2.68402V7.00002C182 7.26524 182.105 7.51959 182.293 7.70713C182.48 7.89467 182.735 8.00002 183 8.00002H187.316C187.103 7.61721 186.84 7.26417 186.535 6.95002L183.051 3.46402ZM188 10.485C188 10.32 187.968 10.162 187.953 10H183C182.204 10 181.441 9.68395 180.879 9.12134C180.316 8.55873 180 7.79567 180 7.00002V2.04702C179.838 2.03202 179.679 2.00002 179.515 2.00002H175C174.204 2.00002 173.441 2.31609 172.879 2.8787C172.316 3.44131 172 4.20437 172 5.00002V19C172 19.7957 172.316 20.5587 172.879 21.1213C173.441 21.684 174.204 22 175 22H185C185.796 22 186.559 21.684 187.121 21.1213C187.684 20.5587 188 19.7957 188 19V10.485Z" fill="#2C2C2C"/>
</g>
<g clip-path="url(#clip3)">
<path d="M247.707 15.293C247.519 15.1056 247.265 15.0002 247 15.0002C246.734 15.0002 246.48 15.1056 246.293 15.293L243.5 18.086L240.707 15.293C240.518 15.1109 240.265 15.0101 240.003 15.0124C239.741 15.0146 239.49 15.1198 239.305 15.3052C239.119 15.4906 239.014 15.7414 239.012 16.0036C239.01 16.2658 239.11 16.5184 239.293 16.707L242.086 19.5L239.293 22.293C239.197 22.3853 239.121 22.4956 239.068 22.6176C239.016 22.7396 238.988 22.8709 238.987 23.0036C238.986 23.1364 239.011 23.2681 239.062 23.391C239.112 23.5139 239.186 23.6255 239.28 23.7194C239.374 23.8133 239.486 23.8876 239.609 23.9379C239.732 23.9881 239.863 24.0134 239.996 24.0123C240.129 24.0111 240.26 23.9835 240.382 23.9311C240.504 23.8787 240.614 23.8025 240.707 23.707L243.5 20.914L246.293 23.707C246.481 23.8892 246.734 23.99 246.996 23.9877C247.258 23.9854 247.509 23.8803 247.694 23.6948C247.88 23.5094 247.985 23.2586 247.987 22.9964C247.99 22.7342 247.889 22.4816 247.707 22.293L244.914 19.5L247.707 16.707C247.894 16.5195 247.999 16.2652 247.999 16C247.999 15.7349 247.894 15.4806 247.707 15.293Z" fill="#2C2C2C"/>
<path d="M236 22C234.022 22 232.089 21.4135 230.444 20.3147C228.8 19.2159 227.518 17.6541 226.761 15.8268C226.004 13.9996 225.806 11.9889 226.192 10.0491C226.578 8.10929 227.53 6.32746 228.929 4.92894C230.327 3.53041 232.109 2.578 234.049 2.19215C235.989 1.8063 238 2.00433 239.827 2.76121C241.654 3.51809 243.216 4.79981 244.315 6.4443C245.414 8.08879 246 10.0222 246 12C246 12.2652 246.105 12.5196 246.293 12.7071C246.48 12.8946 246.735 13 247 13C247.265 13 247.52 12.8946 247.707 12.7071C247.895 12.5196 248 12.2652 248 12C248 9.62663 247.296 7.30655 245.978 5.33316C244.659 3.35977 242.785 1.8217 240.592 0.913451C238.399 0.00519943 235.987 -0.232441 233.659 0.230582C231.331 0.693605 229.193 1.83649 227.515 3.51472C225.836 5.19295 224.694 7.33115 224.231 9.65892C223.768 11.9867 224.005 14.3995 224.913 16.5922C225.822 18.7849 227.36 20.6591 229.333 21.9776C231.307 23.2962 233.627 24 236 24C236.265 24 236.52 23.8946 236.707 23.7071C236.895 23.5196 237 23.2652 237 23C237 22.7348 236.895 22.4804 236.707 22.2929C236.52 22.1054 236.265 22 236 22Z" fill="#2C2C2C"/>
<path d="M236 6C235.734 6 235.48 6.10536 235.292 6.29289C235.105 6.48043 235 6.73478 235 7V11.586L232.293 14.293C232.197 14.3852 232.121 14.4956 232.068 14.6176C232.016 14.7396 231.988 14.8708 231.987 15.0036C231.986 15.1364 232.011 15.2681 232.062 15.391C232.112 15.5139 232.186 15.6255 232.28 15.7194C232.374 15.8133 232.486 15.8875 232.609 15.9378C232.732 15.9881 232.863 16.0134 232.996 16.0123C233.129 16.0111 233.26 15.9835 233.382 15.9311C233.504 15.8787 233.614 15.8025 233.707 15.707L236.707 12.707C236.894 12.5195 237 12.2652 237 12V7C237 6.73478 236.894 6.48043 236.707 6.29289C236.519 6.10536 236.265 6 236 6Z" fill="#2C2C2C"/>
</g>
<g clip-path="url(#clip4)">
<path d="M296 8.00006C295.813 7.81259 295.559 7.70728 295.293 7.70728C295.028 7.70728 294.774 7.81259 294.586 8.00006L292 10.5861L289.414 8.00006C289.226 7.8179 288.973 7.71711 288.711 7.71939C288.449 7.72167 288.198 7.82684 288.013 8.01224C287.827 8.19765 287.722 8.44846 287.72 8.71066C287.717 8.97286 287.818 9.22546 288 9.41406L290.586 12.0001L288 14.5861C287.818 14.7747 287.717 15.0273 287.72 15.2895C287.722 15.5517 287.827 15.8025 288.013 15.9879C288.198 16.1733 288.449 16.2785 288.711 16.2807C288.973 16.283 289.226 16.1822 289.414 16.0001L292 13.4141L294.586 16.0001C294.775 16.1822 295.028 16.283 295.29 16.2807C295.552 16.2785 295.803 16.1733 295.988 15.9879C296.174 15.8025 296.279 15.5517 296.281 15.2895C296.283 15.0273 296.183 14.7747 296 14.5861L293.414 12.0001L296 9.41406C296.188 9.22653 296.293 8.97223 296.293 8.70706C296.293 8.4419 296.188 8.18759 296 8.00006Z" fill="#2C2C2C"/>
<path d="M292 0C289.627 0 287.307 0.703788 285.333 2.02236C283.36 3.34094 281.822 5.21509 280.913 7.4078C280.005 9.60051 279.768 12.0133 280.231 14.3411C280.694 16.6689 281.836 18.8071 283.515 20.4853C285.193 22.1635 287.331 23.3064 289.659 23.7694C291.987 24.2324 294.399 23.9948 296.592 23.0866C298.785 22.1783 300.659 20.6402 301.978 18.6668C303.296 16.6935 304 14.3734 304 12C303.997 8.81846 302.731 5.76821 300.481 3.51852C298.232 1.26883 295.182 0.00344108 292 0V0ZM292 22C290.022 22 288.089 21.4135 286.444 20.3147C284.8 19.2159 283.518 17.6541 282.761 15.8268C282.004 13.9996 281.806 11.9889 282.192 10.0491C282.578 8.10929 283.53 6.32746 284.929 4.92893C286.327 3.53041 288.109 2.578 290.049 2.19215C291.989 1.8063 294 2.00433 295.827 2.7612C297.654 3.51808 299.216 4.79981 300.315 6.4443C301.414 8.08879 302 10.0222 302 12C301.997 14.6513 300.943 17.1931 299.068 19.0679C297.193 20.9426 294.651 21.9971 292 22Z" fill="#2C2C2C"/>
</g>
<defs>
<clipPath id="clip0">
<rect width="24" height="24" fill="white"/>
</clipPath>
<clipPath id="clip1">
<rect width="24" height="24" fill="white" transform="translate(112)"/>
</clipPath>
<clipPath id="clip2">
<rect width="24" height="24" fill="white" transform="translate(168)"/>
</clipPath>
<clipPath id="clip3">
<rect width="24" height="24" fill="white" transform="translate(224)"/>
</clipPath>
<clipPath id="clip4">
<rect width="24" height="24" fill="white" transform="translate(280)"/>
</clipPath>
</defs>
</svg>


