<svg width="24" height="24" viewBox="0 0 24 24" fill="none" xmlns="http://www.w3.org/2000/svg">
    <g clip-path="url(#clip0)">
        <path d="M12.0004 17.169C11.3438 17.1702 10.6934 17.0416 10.0865 16.7907C9.47973 16.5398 8.92846 16.1715 8.46441 15.707L0.293407 7.53496C0.111249 7.34636 0.0104547 7.09376 0.0127331 6.83156C0.0150115 6.56936 0.12018 6.31855 0.305589 6.13314C0.490997 5.94774 0.741809 5.84257 1.00401 5.84029C1.2662 5.83801 1.5188 5.9388 1.70741 6.12096L9.87841 14.293C10.4417 14.8548 11.2048 15.1703 12.0004 15.1703C12.796 15.1703 13.5591 14.8548 14.1224 14.293L22.2934 6.12096C22.3857 6.02545 22.496 5.94927 22.618 5.89686C22.74 5.84445 22.8712 5.81687 23.004 5.81571C23.1368 5.81456 23.2685 5.83986 23.3914 5.89014C23.5143 5.94042 23.6259 6.01467 23.7198 6.10857C23.8137 6.20246 23.8879 6.31411 23.9382 6.43701C23.9885 6.5599 24.0138 6.69158 24.0127 6.82436C24.0115 6.95714 23.9839 7.08836 23.9315 7.21037C23.8791 7.33237 23.8029 7.44271 23.7074 7.53496L15.5364 15.707C15.0723 16.1715 14.5211 16.5398 13.9143 16.7907C13.3074 17.0416 12.657 17.1702 12.0004 17.169Z" fill="#101928" />
    </g>
    <defs>
        <clipPath id="clip0">
            <rect width="24" height="24" fill="white" />
        </clipPath>
    </defs>
</svg>
    