<svg width="24" height="24" viewBox="0 0 24 24" fill="none" xmlns="http://www.w3.org/2000/svg">
    <path d="M13.1004 19C12.9026 19.0001 12.7091 18.9416 12.5446 18.8318C12.38 18.722 12.2517 18.5658 12.1759 18.3831C12.1001 18.2003 12.0802 17.9992 12.1188 17.8052C12.1573 17.6111 12.2525 17.4329 12.3924 17.293L16.9784 12.707C17.1659 12.5194 17.2712 12.2651 17.2712 12C17.2712 11.7348 17.1659 11.4805 16.9784 11.293L12.4004 6.70696C12.2129 6.51932 12.1076 6.26488 12.1077 5.99961C12.1078 5.73434 12.2133 5.47997 12.4009 5.29246C12.5885 5.10495 12.843 4.99966 13.1083 4.99976C13.3735 4.99985 13.6279 5.10532 13.8154 5.29296L18.4004 9.87896C18.9628 10.4415 19.2788 11.2045 19.2788 12C19.2788 12.7955 18.9628 13.5584 18.4004 14.121L13.8144 18.707C13.7207 18.8007 13.6094 18.8748 13.4868 18.9251C13.3642 18.9754 13.2329 19.0009 13.1004 19Z" fill="#101928" />
    <path d="M6.10023 18.9999C5.90308 18.9985 5.71074 18.9388 5.5474 18.8284C5.38406 18.718 5.257 18.5618 5.1822 18.3794C5.10739 18.1969 5.08818 17.9965 5.12697 17.8032C5.16577 17.6099 5.26084 17.4323 5.40023 17.2929L10.6892 11.9999L5.40023 6.70691C5.22767 6.51687 5.13479 6.26775 5.14084 6.01112C5.14688 5.75449 5.25138 5.51002 5.4327 5.32831C5.61402 5.14661 5.85828 5.04159 6.11489 5.035C6.37151 5.02841 6.62083 5.12075 6.81123 5.29292L12.8112 11.2929C12.9987 11.4804 13.104 11.7348 13.104 11.9999C13.104 12.2651 12.9987 12.5194 12.8112 12.7069L6.81123 18.7069C6.71792 18.8003 6.60705 18.8742 6.48503 18.9245C6.363 18.9748 6.23222 19.0004 6.10023 18.9999Z" fill="#101928" />
</svg>
    