<svg width="24" height="24" viewBox="0 0 24 24" fill="none" xmlns="http://www.w3.org/2000/svg">
    <g clip-path="url(#clip0)">
        <path d="M23.2706 9.41909C22.3678 7.94082 21.2291 6.62035 19.8996 5.51009L22.6996 2.71009C22.8817 2.52149 22.9825 2.26889 22.9802 2.00669C22.978 1.74449 22.8728 1.49368 22.6874 1.30827C22.502 1.12287 22.2512 1.0177 21.989 1.01542C21.7268 1.01314 21.4742 1.11393 21.2856 1.29609L18.2406 4.34509C16.353 3.22391 14.195 2.63956 11.9996 2.65509C5.80856 2.65509 2.28056 6.89309 0.728563 9.41909C0.249091 10.1946 -0.00488281 11.0883 -0.00488281 12.0001C-0.00488281 12.9119 0.249091 13.8056 0.728563 14.5811C1.63132 16.0594 2.77005 17.3798 4.09956 18.4901L1.29956 21.2901C1.20405 21.3823 1.12787 21.4927 1.07546 21.6147C1.02305 21.7367 0.995466 21.8679 0.994313 22.0007C0.993159 22.1335 1.01846 22.2652 1.06874 22.388C1.11902 22.5109 1.19328 22.6226 1.28717 22.7165C1.38106 22.8104 1.49271 22.8846 1.61561 22.9349C1.73851 22.9852 1.87018 23.0105 2.00296 23.0093C2.13574 23.0082 2.26696 22.9806 2.38897 22.9282C2.51097 22.8758 2.62132 22.7996 2.71356 22.7041L5.76556 19.6521C7.65083 20.7731 9.80623 21.3584 11.9996 21.3451C18.1906 21.3451 21.7186 17.1071 23.2706 14.5811C23.75 13.8056 24.004 12.9119 24.004 12.0001C24.004 11.0883 23.75 10.1946 23.2706 9.41909ZM2.43256 13.5341C2.1477 13.0731 1.99681 12.542 1.99681 12.0001C1.99681 11.4582 2.1477 10.927 2.43256 10.4661C3.76656 8.30009 6.78156 4.65509 11.9996 4.65509C13.6598 4.64579 15.2968 5.04593 16.7656 5.82009L14.7526 7.83309C13.7925 7.19569 12.6415 6.91009 11.4948 7.02474C10.3481 7.13939 9.27643 7.64723 8.46157 8.46209C7.6467 9.27696 7.13886 10.3487 7.02421 11.4953C6.90956 12.642 7.19516 13.793 7.83256 14.7531L5.52256 17.0631C4.29767 16.0728 3.2524 14.879 2.43256 13.5341ZM14.9996 12.0001C14.9996 12.7957 14.6835 13.5588 14.1209 14.1214C13.5583 14.684 12.7952 15.0001 11.9996 15.0001C11.5541 14.9984 11.1148 14.8958 10.7146 14.7001L14.6996 10.7151C14.8953 11.1153 14.9978 11.5546 14.9996 12.0001ZM8.99956 12.0001C8.99956 11.2044 9.31563 10.4414 9.87824 9.87877C10.4409 9.31616 11.2039 9.00009 11.9996 9.00009C12.4451 9.00182 12.8844 9.10438 13.2846 9.30009L9.29956 13.2851C9.10385 12.8849 9.00129 12.4456 8.99956 12.0001ZM21.5666 13.5341C20.2326 15.7001 17.2176 19.3451 11.9996 19.3451C10.3393 19.3544 8.70233 18.9543 7.23356 18.1801L9.24656 16.1671C10.2066 16.8045 11.3577 17.0901 12.5043 16.9754C13.651 16.8608 14.7227 16.353 15.5376 15.5381C16.3524 14.7232 16.8603 13.6515 16.9749 12.5049C17.0896 11.3582 16.804 10.2072 16.1666 9.24709L18.4766 6.93709C19.7015 7.92737 20.7467 9.12114 21.5666 10.4661C21.8514 10.927 22.0023 11.4582 22.0023 12.0001C22.0023 12.542 21.8514 13.0731 21.5666 13.5341Z" fill="#101928" />
    </g>
    <defs>
        <clipPath id="clip0">
            <rect width="24" height="24" fill="white" />
        </clipPath>
    </defs>
</svg>
    