<svg width="24" height="24" viewBox="0 0 24 24" fill="none" xmlns="http://www.w3.org/2000/svg">
    <path d="M23.7074 16.293L15.5364 8.12105C14.5977 7.18504 13.3261 6.65942 12.0004 6.65942C10.6747 6.65942 9.40316 7.18504 8.46441 8.12105L0.293407 16.293C0.111249 16.4817 0.0104547 16.7343 0.0127331 16.9965C0.0150115 17.2586 0.12018 17.5095 0.305589 17.6949C0.490997 17.8803 0.741809 17.9854 1.00401 17.9877C1.2662 17.99 1.5188 17.8892 1.70741 17.7071L9.87841 9.53505C10.4421 8.97398 11.2051 8.65899 12.0004 8.65899C12.7957 8.65899 13.5587 8.97398 14.1224 9.53505L22.2934 17.7071C22.482 17.8892 22.7346 17.99 22.9968 17.9877C23.259 17.9854 23.5098 17.8803 23.6952 17.6949C23.8806 17.5095 23.9858 17.2586 23.9881 16.9965C23.9904 16.7343 23.8896 16.4817 23.7074 16.293Z" fill="#101928" />
</svg>
    