<svg width="22" height="22" viewBox="0 0 22 22" fill="none" xmlns="http://www.w3.org/2000/svg">
    <g clip-path="url(#clip0)">
        <path d="M21.1924 0.808442C20.8638 0.475808 20.4549 0.233559 20.0053 0.105098C19.5557 -0.0233623 19.0805 -0.0336917 18.6257 0.0751082L3.95907 3.16427C3.11443 3.28011 2.31891 3.62946 1.66209 4.17299C1.00527 4.71651 0.513243 5.43262 0.241416 6.24067C-0.0304106 7.04872 -0.0712385 7.91661 0.12353 8.74661C0.318299 9.5766 0.740928 10.3357 1.34382 10.9385L2.91866 12.5124C3.00389 12.5977 3.07149 12.6988 3.11757 12.8102C3.16366 12.9216 3.18733 13.0409 3.18724 13.1614V16.0654C3.18926 16.4738 3.28326 16.8764 3.46224 17.2434L3.45491 17.2498L3.47874 17.2736C3.74733 17.8136 4.18602 18.2504 4.72724 18.5166L4.75107 18.5404L4.75749 18.5331C5.12449 18.7121 5.52709 18.8061 5.93541 18.8081H8.83941C9.08237 18.8079 9.31547 18.9042 9.48749 19.0758L11.0614 20.6497C11.4836 21.0765 11.986 21.4156 12.5398 21.6473C13.0936 21.8791 13.6878 21.9989 14.2881 21.9999C14.7883 21.9993 15.2852 21.9176 15.7593 21.7579C16.56 21.495 17.2712 21.0136 17.8129 20.368C18.3545 19.7224 18.7049 18.9383 18.8247 18.1041L21.9184 3.40536C22.0329 2.9467 22.0261 2.46616 21.8988 2.01089C21.7716 1.55562 21.5281 1.14126 21.1924 0.808442ZM4.21666 11.2181L2.64091 9.64419C2.27398 9.28611 2.01681 8.83078 1.89958 8.33167C1.78236 7.83255 1.80993 7.31035 1.97907 6.82636C2.14306 6.32982 2.44621 5.89083 2.85247 5.5616C3.25873 5.23237 3.751 5.02675 4.27074 4.96919L18.7917 1.91211L5.01874 15.6869V13.1614C5.02013 12.8006 4.94995 12.443 4.81228 12.1095C4.6746 11.7759 4.47216 11.4729 4.21666 11.2181ZM17.0234 17.7906C16.953 18.2969 16.7429 18.7736 16.4167 19.1671C16.0904 19.5606 15.6609 19.8554 15.1764 20.0184C14.6919 20.1814 14.1716 20.2061 13.6738 20.0898C13.1761 19.9735 12.7206 19.7208 12.3585 19.3599L10.7818 17.7833C10.5273 17.5274 10.2246 17.3245 9.89121 17.1863C9.5578 17.0482 9.2003 16.9775 8.83941 16.9784H6.31399L20.0887 3.20828L17.0234 17.7906Z" fill="white" />
    </g>
    <defs>
        <clipPath id="clip0">
            <rect width="22" height="22" fill="white" />
        </clipPath>
    </defs>
</svg>
    