<svg width="24" height="24" viewBox="0 0 24 24" fill="none" xmlns="http://www.w3.org/2000/svg">
    <path d="M18.0004 15.5C17.7352 15.4999 17.4809 15.3945 17.2934 15.207L12.7074 10.621C12.5173 10.4385 12.2639 10.3366 12.0004 10.3366C11.7369 10.3366 11.4835 10.4385 11.2934 10.621L6.70741 15.207C6.5188 15.3891 6.2662 15.4899 6.00401 15.4877C5.74181 15.4854 5.491 15.3802 5.30559 15.1948C5.12018 15.0094 5.01501 14.7586 5.01273 14.4964C5.01045 14.2342 5.11125 13.9816 5.29341 13.793L9.87941 9.20699C10.451 8.66152 11.2108 8.35718 12.0009 8.35718C12.791 8.35718 13.5508 8.66152 14.1224 9.20699L18.7074 13.793C18.8472 13.9328 18.9424 14.111 18.981 14.305C19.0196 14.4989 18.9998 14.6999 18.9241 14.8826C18.8484 15.0653 18.7203 15.2215 18.5559 15.3314C18.3915 15.4413 18.1982 15.4999 18.0004 15.5Z" fill="#101928" />
</svg>