<svg width="24" height="24" viewBox="0 0 24 24" fill="none" xmlns="http://www.w3.org/2000/svg">
    <g clip-path="url(#clip0)">
        <path d="M14.6003 21.3C14.3003 21.526 13.9813 21.764 13.7103 22H16.0003C16.2655 22 16.5199 22.1054 16.7074 22.2929C16.8949 22.4805 17.0003 22.7348 17.0003 23C17.0003 23.2653 16.8949 23.5196 16.7074 23.7072C16.5199 23.8947 16.2655 24 16.0003 24H12.0003C11.7351 24 11.4807 23.8947 11.2932 23.7072C11.1056 23.5196 11.0003 23.2653 11.0003 23C11.0003 21.5 12.2753 20.5441 13.4003 19.7001C14.1503 19.1381 15.0003 18.5 15.0003 18C15.0003 17.7348 14.8949 17.4805 14.7074 17.2929C14.5199 17.1054 14.2655 17 14.0003 17C13.7351 17 13.4807 17.1054 13.2932 17.2929C13.1056 17.4805 13.0003 17.7348 13.0003 18C13.0003 18.2653 12.8949 18.5196 12.7074 18.7072C12.5199 18.8947 12.2655 19 12.0003 19C11.7351 19 11.4807 18.8947 11.2932 18.7072C11.1056 18.5196 11.0003 18.2653 11.0003 18C11.0003 17.2044 11.3164 16.4413 11.879 15.8787C12.4416 15.3161 13.2046 15 14.0003 15C14.7959 15 15.559 15.3161 16.1216 15.8787C16.6842 16.4413 17.0003 17.2044 17.0003 18C17.0003 19.5 15.7253 20.456 14.6003 21.3ZM23.0003 15C22.7351 15 22.4807 15.1054 22.2932 15.2929C22.1056 15.4805 22.0003 15.7348 22.0003 16V19H21.0003C20.7351 19 20.4807 18.8947 20.2932 18.7072C20.1056 18.5196 20.0003 18.2653 20.0003 18V16C20.0003 15.7348 19.8949 15.4805 19.7074 15.2929C19.5199 15.1054 19.2655 15 19.0003 15C18.7351 15 18.4807 15.1054 18.2932 15.2929C18.1056 15.4805 18.0003 15.7348 18.0003 16V18C18.0003 18.7957 18.3164 19.5588 18.879 20.1214C19.4416 20.684 20.2046 21 21.0003 21H22.0003V23C22.0003 23.2653 22.1056 23.5196 22.2932 23.7072C22.4807 23.8947 22.7351 24 23.0003 24C23.2655 24 23.5199 23.8947 23.7074 23.7072C23.8949 23.5196 24.0003 23.2653 24.0003 23V16C24.0003 15.7348 23.8949 15.4805 23.7074 15.2929C23.5199 15.1054 23.2655 15 23.0003 15ZM13.0003 12V7.00005C13.0003 6.73483 12.8949 6.48048 12.7074 6.29294C12.5199 6.10541 12.2655 6.00005 12.0003 6.00005C11.7351 6.00005 11.4807 6.10541 11.2932 6.29294C11.1056 6.48048 11.0003 6.73483 11.0003 7.00005V11H8.00029C7.73507 11 7.48072 11.1054 7.29318 11.2929C7.10565 11.4805 7.00029 11.7348 7.00029 12C7.00029 12.2653 7.10565 12.5196 7.29318 12.7072C7.48072 12.8947 7.73507 13 8.00029 13H12.0003C12.2655 13 12.5199 12.8947 12.7074 12.7072C12.8949 12.5196 13.0003 12.2653 13.0003 12ZM23.0003 2.00005C22.7351 2.00005 22.4807 2.10541 22.2932 2.29294C22.1056 2.48048 22.0003 2.73483 22.0003 3.00005V5.37405C20.9584 3.80162 19.5604 2.49697 17.9199 1.56595C16.2793 0.634933 14.4424 0.103773 12.5582 0.015569C10.674 -0.0726351 8.79545 0.284601 7.07512 1.05829C5.35479 1.83198 3.84108 3.00034 2.65681 4.46855C1.47254 5.93677 0.651075 7.66349 0.259064 9.50861C-0.132947 11.3537 -0.0844604 13.2653 0.400589 15.0882C0.885639 16.911 1.79359 18.5939 3.05077 20.0002C4.30795 21.4065 5.87894 22.4966 7.63629 23.182C7.75243 23.2268 7.87581 23.2499 8.00029 23.25C8.23365 23.2504 8.45979 23.1691 8.63954 23.0203C8.81929 22.8715 8.94134 22.6645 8.98455 22.4352C9.02775 22.2059 8.9894 21.9687 8.87612 21.7646C8.76284 21.5606 8.58178 21.4026 8.36429 21.3181C6.87231 20.7411 5.54051 19.8147 4.48067 18.6166C3.42084 17.4184 2.6639 15.9835 2.2734 14.4322C1.8829 12.881 1.87023 11.2587 2.23646 9.70159C2.6027 8.14444 3.33714 6.69788 4.37814 5.48332C5.41914 4.26877 6.73631 3.32167 8.2191 2.72152C9.70188 2.12138 11.307 1.88571 12.8997 2.03429C14.4924 2.18288 16.0263 2.71138 17.3725 3.57544C18.7186 4.4395 19.8379 5.6139 20.6363 7.00005H18.0003C17.7351 7.00005 17.4807 7.10541 17.2932 7.29294C17.1056 7.48048 17.0003 7.73483 17.0003 8.00005C17.0003 8.26527 17.1056 8.51962 17.2932 8.70716C17.4807 8.89469 17.7351 9.00005 18.0003 9.00005H21.0003C21.7959 9.00005 22.559 8.68398 23.1216 8.12137C23.6842 7.55876 24.0003 6.7957 24.0003 6.00005V3.00005C24.0003 2.73483 23.8949 2.48048 23.7074 2.29294C23.5199 2.10541 23.2655 2.00005 23.0003 2.00005Z" fill="#101928" />
    </g>
    <defs>
        <clipPath id="clip0">
            <rect width="24" height="24" fill="white" />
        </clipPath>
    </defs>
</svg>
    