<svg width="24" height="24" viewBox="0 0 24 24" fill="none" xmlns="http://www.w3.org/2000/svg">
    <path d="M18.7074 8.20709C18.5199 8.01962 18.2656 7.91431 18.0004 7.91431C17.7352 7.91431 17.4809 8.01962 17.2934 8.20709L12.7074 12.7931C12.5173 12.9756 12.2639 13.0775 12.0004 13.0775C11.7369 13.0775 11.4835 12.9756 11.2934 12.7931L6.70741 8.20709C6.5188 8.02493 6.2662 7.92414 6.00401 7.92642C5.74181 7.9287 5.491 8.03387 5.30559 8.21927C5.12018 8.40468 5.01501 8.65549 5.01273 8.91769C5.01045 9.17989 5.11125 9.43249 5.29341 9.62109L9.87841 14.2071C10.157 14.4857 10.4877 14.7067 10.8517 14.8575C11.2157 15.0083 11.6059 15.086 11.9999 15.086C12.3939 15.086 12.7841 15.0083 13.1481 14.8575C13.5121 14.7067 13.8428 14.4857 14.1214 14.2071L18.7074 9.62109C18.8949 9.43357 19.0002 9.17926 19.0002 8.91409C19.0002 8.64893 18.8949 8.39462 18.7074 8.20709Z" fill="#101928" />
</svg>
    