<svg width="27" height="27" viewBox="0 0 27 27" fill="none" xmlns="http://www.w3.org/2000/svg">
    <path d="M18.0191 2.25H8.94038C7.16642 2.25208 5.46574 2.95779 4.21147 4.21227C2.9572 5.46675 2.25179 7.16755 2.25 8.9415L2.25 18.0202C2.25208 19.7942 2.95779 21.4949 4.21227 22.7492C5.46675 24.0034 7.16755 24.7088 8.9415 24.7106H18.0203C19.7942 24.7085 21.4949 24.0028 22.7492 22.7484C24.0034 21.4939 24.7088 19.7931 24.7106 18.0191V8.94037C24.7085 7.16642 24.0028 5.46574 22.7484 4.21147C21.4939 2.9572 19.7931 2.25179 18.0191 2.25V2.25ZM22.4516 18.0191C22.4516 18.6012 22.337 19.1776 22.1142 19.7154C21.8915 20.2531 21.565 20.7418 21.1534 21.1534C20.7418 21.565 20.2531 21.8915 19.7154 22.1142C19.1776 22.337 18.6012 22.4516 18.0191 22.4516H8.94038C7.765 22.4513 6.63786 21.9842 5.80685 21.153C4.97584 20.3218 4.509 19.1945 4.509 18.0191V8.94037C4.5093 7.765 4.97642 6.63786 5.80765 5.80685C6.63887 4.97584 7.76612 4.509 8.9415 4.509H18.0203C19.1956 4.5093 20.3228 4.97642 21.1538 5.80765C21.9848 6.63887 22.4516 7.76612 22.4516 8.9415V18.0202V18.0191Z" fill="white" />
    <path d="M13.4799 7.67139C11.9402 7.67377 10.4643 8.28652 9.37574 9.37532C8.28716 10.4641 7.67469 11.9401 7.67261 13.4798C7.67439 15.0198 8.28688 16.4963 9.37575 17.5853C10.4646 18.6744 11.9409 19.2872 13.481 19.2893C15.0212 19.2875 16.4978 18.6748 17.5869 17.5857C18.6761 16.4966 19.2887 15.02 19.2905 13.4798C19.2881 11.9397 18.675 10.4635 17.5858 9.37486C16.4965 8.2862 15.0199 7.674 13.4799 7.67251V7.67139ZM13.4799 17.0303C12.5385 17.0303 11.6357 16.6563 10.9701 15.9907C10.3044 15.325 9.93048 14.4222 9.93048 13.4809C9.93048 12.5395 10.3044 11.6367 10.9701 10.9711C11.6357 10.3055 12.5385 9.93151 13.4799 9.93151C14.4212 9.93151 15.324 10.3055 15.9896 10.9711C16.6553 11.6367 17.0292 12.5395 17.0292 13.4809C17.0292 14.4222 16.6553 15.325 15.9896 15.9907C15.324 16.6563 14.4212 17.0303 13.4799 17.0303Z" fill="white" />
    <path d="M19.3006 9.10698C20.0691 9.10698 20.6922 8.48393 20.6922 7.71536C20.6922 6.94678 20.0691 6.32373 19.3006 6.32373C18.532 6.32373 17.9089 6.94678 17.9089 7.71536C17.9089 8.48393 18.532 9.10698 19.3006 9.10698Z" fill="white" />
</svg>
    