<svg width="27" height="27" viewBox="0 0 27 27" fill="none" xmlns="http://www.w3.org/2000/svg">
    <path d="M24.7039 15.4339V23.7353H19.8911V15.9897C19.8911 14.0434 19.1948 12.7159 17.4533 12.7159C16.1235 12.7159 15.3315 13.6114 14.9839 14.4765C14.8568 14.7859 14.8241 15.2168 14.8241 15.6499V23.7353H10.0091C10.0091 23.7353 10.0744 10.6178 10.0091 9.25767H14.8241V11.3097L14.7926 11.3569H14.8241V11.3097C15.4631 10.3253 16.605 8.91792 19.1621 8.91792C22.329 8.91792 24.7039 10.9879 24.7039 15.4339ZM4.97363 2.2793C3.32775 2.2793 2.25 3.3593 2.25 4.78017C2.25 6.16955 3.29625 7.28217 4.91063 7.28217H4.94213C6.62175 7.28217 7.66463 6.16955 7.66463 4.78017C7.63538 3.3593 6.62288 2.2793 4.97475 2.2793H4.97363ZM2.53575 23.7353H7.3485V9.25767H2.53575V23.7353Z" fill="white" />
</svg>
    