<svg width="122" height="34" viewBox="0 0 122 34" fill="none" xmlns="http://www.w3.org/2000/svg">
    <path d="M0 16.8265V33.653H3.88643H7.77285L7.84044 23.5224L7.94183 13.3571L14.9712 23.5224L22.0006 33.653H25.8532H29.7396V29.4897C29.7396 27.1999 29.841 25.3265 29.9424 25.3265C30.0776 25.3265 30.6859 25.8816 31.328 26.5407C33.5922 28.9346 36.7014 31.3632 38.8305 32.3693C43.359 34.555 50.1856 33.9305 55.8632 30.7734L58.5668 29.2816L61.8111 30.9469C66.7114 33.4795 71.544 34.2775 75.2277 33.1326C77.5258 32.4387 79.79 30.8428 82.7302 27.8591C84.082 26.4714 85.2648 25.3265 85.3324 25.3265C85.4338 25.3265 85.5014 27.1999 85.5014 29.4897V33.653H89.2188H92.9363V28.1367V22.6203L96.9241 22.4816C101.385 22.3081 103.852 21.4754 105.204 19.7407L105.947 18.7346L108.313 19.4632C112.706 20.8163 113.889 21.753 113.889 23.8346C113.889 25.1183 112.875 26.2285 111.321 26.6795C109.935 27.0612 108.955 26.7836 107.975 25.6734C106.961 24.5285 105.542 23.904 103.852 23.8346C102.5 23.7652 102.23 23.904 101.385 24.9101C100.371 26.1591 100.067 27.4081 100.371 28.7959C100.574 29.802 104.089 32.3693 106.049 32.9591C109.901 34.1387 114.7 33.5489 117.64 31.502C120.479 29.5244 121.628 27.0265 121.662 22.6203C121.662 19.3244 121.223 18.0061 119.601 16.3754C118.181 14.9183 117.539 14.5714 113.72 13.2183C110.341 11.9693 109.158 11.0673 109.158 9.74891C109.158 8.6734 109.394 8.29177 110.51 7.5285C111.693 6.69585 113.078 6.79993 114.835 7.84075C116.086 8.60401 116.627 8.70809 118.012 8.60401C120.31 8.36116 121.121 7.49381 121.121 5.20401C121.121 3.15707 120.276 2.01218 118.012 0.971359C114.869 -0.485783 108.144 -0.069458 105.745 1.69993C104.866 2.35912 104.866 2.35912 102.737 1.2836L100.574 0.173401L93.0377 0.0693207L85.5014 -0.069458V4.1285C85.5014 6.45299 85.4 8.32646 85.231 8.32646C85.0958 8.32646 84.3186 7.45911 83.5413 6.4183C80.9391 2.9836 77.3906 0.763195 73.6393 0.173401C70.1922 -0.347008 63.2305 1.66524 59.7496 4.19789C58.7695 4.92646 58.6681 4.92646 57.8233 4.37136C56.2349 3.29585 52.7202 1.73462 50.7601 1.21422C42.5817 -0.936802 37.8842 0.242786 32.5446 5.72442L29.7396 8.56932V4.30197V-6.86646e-05H25.8532H21.9668L21.8992 10.2693L21.7978 20.5387L14.7008 10.2693L7.60388 0.034626L3.81884 -6.86646e-05H0V16.8265ZM98.2759 7.63258C99.6615 8.49993 100.135 9.74891 99.9319 11.8999C99.6953 14.5367 98.6476 15.404 95.4709 15.5428L92.9363 15.6816V11.3101V6.93871H95.0654C96.5524 6.93871 97.4648 7.14687 98.2759 7.63258ZM56.877 10.8244C57.5191 11.3795 58.2626 11.7958 58.4654 11.7958C58.6681 11.7958 59.5468 11.3795 60.4255 10.8244C62.7235 9.47136 65.6299 9.50605 68.4349 10.9285C70.4964 11.9693 74.687 15.855 74.687 16.6877C74.687 17.3816 70.4288 21.3714 68.4687 22.551C62.7573 25.8816 53.1934 25.9856 48.1579 22.7938C46.2316 21.5448 41.9058 17.451 41.9058 16.8265C41.9058 16.2367 45.995 12.2122 47.7186 11.102C49.6787 9.85299 50.0504 9.74891 53.092 9.8183C55.2886 9.88769 55.7956 10.0265 56.877 10.8244Z" fill="#D1004E" />
</svg>