<svg width="24" height="24" viewBox="0 0 24 24" fill="none" xmlns="http://www.w3.org/2000/svg">
    <path d="M23.8359 8.79401C23.6314 8.14291 23.2227 7.57493 22.6704 7.17405C22.1181 6.77317 21.4514 6.56068 20.7689 6.56802H16.3999L15.0729 2.43201C14.8643 1.78097 14.4542 1.21303 13.9019 0.810081C13.3496 0.407132 12.6836 0.190002 11.9999 0.190002C11.3163 0.190002 10.6503 0.407132 10.098 0.810081C9.54568 1.21303 9.13563 1.78097 8.92695 2.43201L7.59995 6.56802H3.23095C2.55069 6.56898 1.88814 6.7849 1.33793 7.18492C0.787717 7.58494 0.377989 8.14861 0.16727 8.7954C-0.0434492 9.4422 -0.0443818 10.139 0.164605 10.7864C0.373593 11.4338 0.78181 11.9985 1.33095 12.4L4.88695 15L3.53495 19.187C3.31646 19.8364 3.31369 20.539 3.52706 21.1901C3.74042 21.8412 4.15849 22.4059 4.71895 22.8C5.2698 23.2068 5.93734 23.4247 6.6221 23.4213C7.30686 23.4179 7.97219 23.1933 8.51895 22.781L11.9999 20.219L15.4819 22.778C16.0318 23.1825 16.6957 23.4021 17.3783 23.4055C18.0609 23.4088 18.7269 23.1956 19.2807 22.7965C19.8345 22.3974 20.2474 21.8331 20.4602 21.1845C20.673 20.5359 20.6747 19.8366 20.4649 19.187L19.1129 15L22.6729 12.4C23.2284 12.0036 23.6414 11.4388 23.8508 10.7894C24.0603 10.1399 24.0551 9.44027 23.8359 8.79401ZM21.4929 10.785L17.3489 13.814C17.1787 13.9382 17.0521 14.1129 16.9871 14.3133C16.9221 14.5138 16.922 14.7296 16.9869 14.93L18.5619 19.8C18.6416 20.047 18.641 20.3129 18.56 20.5595C18.479 20.8061 18.322 21.0207 18.1114 21.1724C17.9008 21.3241 17.6475 21.4051 17.388 21.4038C17.1284 21.4024 16.876 21.3189 16.6669 21.165L12.5919 18.165C12.4203 18.0389 12.2129 17.971 11.9999 17.971C11.787 17.971 11.5796 18.0389 11.4079 18.165L7.33295 21.165C7.12403 21.3209 6.87089 21.4063 6.61021 21.4086C6.34954 21.411 6.09489 21.3303 5.88318 21.1782C5.67147 21.0261 5.5137 20.8105 5.43274 20.5627C5.35179 20.3149 5.35186 20.0478 5.43295 19.8L7.01295 14.93C7.07787 14.7296 7.07782 14.5138 7.01281 14.3133C6.9478 14.1129 6.82116 13.9382 6.65095 13.814L2.50695 10.785C2.29825 10.6322 2.14318 10.4174 2.06389 10.1712C1.9846 9.92496 1.98514 9.65999 2.06543 9.41411C2.14573 9.16823 2.30167 8.95402 2.51099 8.80207C2.72031 8.65012 2.97229 8.5682 3.23095 8.56802H8.33095C8.54266 8.56801 8.74891 8.50081 8.92 8.37609C9.09108 8.25137 9.21816 8.07558 9.28295 7.87402L10.8329 3.04302C10.9125 2.7958 11.0685 2.58021 11.2784 2.42726C11.4882 2.27432 11.7412 2.19192 12.0009 2.19192C12.2607 2.19192 12.5137 2.27432 12.7235 2.42726C12.9334 2.58021 13.0894 2.7958 13.1689 3.04302L14.7189 7.87402C14.7837 8.07558 14.9108 8.25137 15.0819 8.37609C15.253 8.50081 15.4592 8.56801 15.6709 8.56802H20.7709C21.0296 8.5682 21.2816 8.65012 21.4909 8.80207C21.7002 8.95402 21.8562 9.16823 21.9365 9.41411C22.0168 9.65999 22.0173 9.92496 21.938 10.1712C21.8587 10.4174 21.7036 10.6322 21.4949 10.785H21.4929Z" fill="#D1004E" />
    <path d="M21.4929 10.785L17.3489 13.814C17.1787 13.9382 17.0521 14.1129 16.9871 14.3133C16.9221 14.5138 16.922 14.7296 16.9869 14.93L18.5619 19.8C18.6416 20.047 18.641 20.3129 18.56 20.5595C18.479 20.8061 18.322 21.0207 18.1114 21.1724C17.9008 21.3241 17.6475 21.4051 17.388 21.4038C17.1284 21.4024 16.876 21.3189 16.6669 21.165L12.5919 18.165C12.4203 18.0389 12.2129 17.971 11.9999 17.971C11.787 17.971 11.5796 18.0389 11.4079 18.165L7.33295 21.165C7.12403 21.3209 6.87089 21.4063 6.61021 21.4086C6.34954 21.411 6.09489 21.3303 5.88318 21.1782C5.67147 21.0261 5.5137 20.8105 5.43274 20.5627C5.35179 20.3149 5.35186 20.0478 5.43295 19.8L7.01295 14.93C7.07787 14.7296 7.07782 14.5138 7.01281 14.3133C6.9478 14.1129 6.82116 13.9382 6.65095 13.814L2.50695 10.785C2.29825 10.6322 2.14318 10.4174 2.06389 10.1712C1.9846 9.92496 1.98514 9.65999 2.06543 9.41411C2.14573 9.16823 2.30167 8.95402 2.51099 8.80207C2.72031 8.65012 2.97229 8.5682 3.23095 8.56802H8.33095C8.54266 8.56801 8.74891 8.50081 8.92 8.37609C9.09108 8.25137 9.21816 8.07558 9.28295 7.87402L10.8329 3.04302C10.9125 2.7958 11.0685 2.58021 11.2784 2.42726C11.4882 2.27432 11.7412 2.19192 12.0009 2.19192C12.2607 2.19192 12.5137 2.27432 12.7235 2.42726C12.9334 2.58021 13.0894 2.7958 13.1689 3.04302L14.7189 7.87402C14.7837 8.07558 14.9108 8.25137 15.0819 8.37609C15.253 8.50081 15.4592 8.56801 15.6709 8.56802H20.7709C21.0296 8.5682 21.2816 8.65012 21.4909 8.80207C21.7002 8.95402 21.8562 9.16823 21.9365 9.41411C22.0168 9.65999 22.0173 9.92496 21.938 10.1712C21.8587 10.4174 21.7036 10.6322 21.4949 10.785H21.4929Z" fill="#D1004E" />
</svg>
    