<svg width="27" height="27" viewBox="0 0 27 27" fill="none" xmlns="http://www.w3.org/2000/svg">
    <path d="M24.75 6.64538C23.9067 7.01368 23.0135 7.25517 22.0995 7.362C23.0589 6.79864 23.7803 5.90524 24.129 4.84875C23.22 5.37787 22.2286 5.75055 21.1961 5.95125C20.7614 5.49586 20.2384 5.13381 19.6591 4.8872C19.0798 4.64059 18.4563 4.51459 17.8268 4.51688C15.2775 4.51688 13.2109 6.55313 13.2109 9.06188C13.2109 9.41738 13.2514 9.765 13.3301 10.0969C11.5015 10.0099 9.71113 9.54271 8.07319 8.72509C6.43525 7.90748 4.98573 6.7574 3.81713 5.34825C3.40743 6.03945 3.19209 6.8285 3.19388 7.632C3.19388 9.21038 4.00838 10.602 5.24588 11.4154C4.51404 11.3917 3.79802 11.1964 3.15563 10.845V10.9013C3.15563 13.104 4.7475 14.9411 6.85688 15.3596C6.46044 15.4648 6.05203 15.5181 5.64188 15.5182C5.34375 15.5182 5.05463 15.4901 4.77225 15.4339C5.07384 16.3428 5.651 17.1352 6.42355 17.7011C7.1961 18.267 8.1257 18.5783 9.08325 18.5918C7.44083 19.8569 5.42455 20.5403 3.35138 20.5346C2.97788 20.5346 2.61113 20.5121 2.25 20.4716C4.36641 21.8112 6.82042 22.5206 9.32513 22.5169C17.8155 22.5169 22.4573 15.5903 22.4573 9.58388L22.4415 8.9955C23.347 8.35838 24.1292 7.56208 24.75 6.64538Z" fill="white" />
</svg>
    